<?xml version="1.0" encoding="UTF-8" standalone="no"?>
<!-- Created with Inkscape (http://www.inkscape.org/) -->

<svg
   width="280mm"
   height="280mm"
   viewBox="0 0 280 280"
   version="1.1"
   id="svg5"
   inkscape:version="1.1 (c68e22c387, 2021-05-23)"
   sodipodi:docname="logo.svg"
   inkscape:export-filename="D:\Brais\Clase\4ยบ Carreira\CIIE\Logo\logo_negro.png"
   inkscape:export-xdpi="104"
   inkscape:export-ydpi="104"
   xmlns:inkscape="http://www.inkscape.org/namespaces/inkscape"
   xmlns:sodipodi="http://sodipodi.sourceforge.net/DTD/sodipodi-0.dtd"
   xmlns="http://www.w3.org/2000/svg"
   xmlns:svg="http://www.w3.org/2000/svg">
  <sodipodi:namedview
     id="namedview7"
     pagecolor="#ffffff"
     bordercolor="#666666"
     borderopacity="1.0"
     inkscape:pageshadow="2"
     inkscape:pageopacity="0.0"
     inkscape:pagecheckerboard="0"
     inkscape:document-units="mm"
     showgrid="false"
     inkscape:zoom="0.52410025"
     inkscape:cx="352.03189"
     inkscape:cy="350.12386"
     inkscape:window-width="1920"
     inkscape:window-height="1017"
     inkscape:window-x="-8"
     inkscape:window-y="-8"
     inkscape:window-maximized="1"
     inkscape:current-layer="layer2"
     height="280mm" />
  <defs
     id="defs2" />
  <g
     inkscape:groupmode="layer"
     id="layer2"
     inkscape:label="Capa 2"
     style="display:inline">
    <path
       id="path5576"
       style="fill:#000000;fill-opacity:1;stroke:none;stroke-width:0.94261px;stroke-linecap:butt;stroke-linejoin:miter;stroke-opacity:1"
       d="m 119.08123,10.554391 c -10.90613,-0.04971 -21.551705,1.721063 -31.251334,5.734534 -24.19986,10.013321 -39.11329,48.240525 -24.48119,66.449174 2.59949,-2.885805 6.9021,-5.927254 12.2561,-8.828402 l 0.031,0.04961 c 0,0 6.76943,10.104384 10.79107,8.093562 3.887569,-1.943794 0,-13.039514 0,-13.039514 l 6.295219,-2.247923 c 0,0 4.83723,10.718183 8.992225,9.442317 3.97011,-1.219097 2.58682,-11.312742 2.30684,-13.115996 3.69918,-0.939255 7.44674,-1.730386 11.17399,-2.321306 -0.0388,1.455073 -0.11706,9.719371 3.15588,10.041766 3.74772,0.369159 5.78089,-7.703638 6.46938,-11.102166 3.25378,-0.19849 6.43833,-0.231494 9.479,-0.02894 -0.59087,2.603175 -1.92194,9.755772 1.13792,10.681004 3.46414,1.047478 6.6962,-6.626367 7.72459,-9.344133 9.1005,2.275189 15.98785,7.334075 18.42988,16.315282 5.9327,21.819031 -62.798155,25.42395 -53.55487,46.47778 0,0 30.55084,19.6139 69.97868,-17.36845 10.29197,-9.65357 24.42059,16.95045 21.09276,30.66324 -0.84096,2.8253 -1.80627,5.45664 -2.86183,7.94319 -3.21817,-2.15337 -7.29734,-4.17673 -9.40305,-2.3983 -3.0495,2.57557 2.68239,10.01387 4.31602,12.01167 -3.08547,4.72114 -6.65231,8.62663 -10.60194,11.80444 -2.12853,-3.68757 -9.80389,-16.08372 -15.33085,-13.25965 -6.37678,3.25835 4.51342,19.79362 4.51342,19.79362 l -12.9067,4.13102 c -2.18797,0.43284 -4.41065,0.76434 -6.66161,0.99683 -1.00298,-3.01279 -4.26283,-11.6477 -8.46253,-10.84585 -3.63664,0.69434 -3.06487,8.47827 -2.74402,11.26236 -5.47327,-0.13108 -11.00742,-0.71326 -16.4791,-1.62522 -0.23426,-1.19802 -1.20382,-5.4322 -3.26337,-5.60689 -1.79809,-0.15248 -3.32589,3.95893 -3.32589,3.95893 l -7.2254,-1.3379 c -2.81973,-0.74196 -5.57208,-1.55877 -8.27391,-2.41122 -0.13467,-1.45878 -0.583745,-4.24552 -2.078965,-4.60851 -1.34135,-0.32564 -2.95935,1.25585 -4.03696,2.56625 -17.572389,-6.20246 -31.307109,-13.85332 -35.066069,-17.11368 -4.52689,4.70306 1.40338,64.68275 -16.53284,85.20772 -4.75034,5.43593 -4.84189,17.78082 1.27176,21.61986 6.60023,4.14463 14.0738,-10.85105 21.61986,-8.90229 6.57045,1.69677 5.94196,15.52141 12.71757,15.8967 5.68663,0.31497 6.58231,-13.56366 12.081439,-12.08143 28.892415,7.78758 37.595755,8.73177 81.392455,3.17913 6.77141,-0.85849 9.82267,13.33207 16.53284,12.08195 6.93608,-1.2922 4.42344,-17.1225 11.44581,-17.8046 7.31111,-0.71014 8.31828,18.29546 15.26109,15.89671 10.06692,-3.47812 0.78814,-21.41496 3.17913,-31.79393 6.94966,-30.16751 19.52908,-61.36719 22.25602,-94.11001 3.19119,-38.3171 -17.25321,-82.668847 -50.23466,-106.82707 -19.23154,-14.086707 -45.26458,-23.786302 -70.06859,-24.164934 -0.35233,-0.0054 -0.70446,-0.0087 -1.05627,-0.01033 z m -0.72709,10.381278 a 16.150537,16.150537 0 0 1 16.15044,16.150436 16.150537,16.150537 0 0 1 -16.15044,16.150434 16.150537,16.150537 0 0 1 -16.15043,-16.150434 16.150537,16.150537 0 0 1 16.15043,-16.150436 z m -2.70939,3.235462 a 5.1930956,5.4361204 0 0 0 -5.19297,5.43636 5.1930956,5.4361204 0 0 0 5.19297,5.435843 5.1930956,5.4361204 0 0 0 5.19348,-5.435843 5.1930956,5.4361204 0 0 0 -5.19348,-5.43636 z M 81.709336,38.07054 A 10.931053,10.931053 0 0 1 92.639935,49.001655 10.931053,10.931053 0 0 1 81.709336,59.932773 10.931053,10.931053 0 0 1 70.778226,49.001655 10.931053,10.931053 0 0 1 81.709336,38.07054 Z m -1.47278,11.250478 a 4.1736044,4.1736044 0 0 0 -4.1739,4.173386 4.1736044,4.1736044 0 0 0 4.1739,4.173906 4.1736044,4.1736044 0 0 0 4.17339,-4.173906 4.1736044,4.1736044 0 0 0 -4.17339,-4.173386 z m 64.921114,20.366714 -3.94756,0.723988 1.64848,8.073408 c 0.28855,1.413179 0.91614,2.445655 1.88309,3.096969 0.96569,0.645165 2.16785,0.835509 3.60701,0.57154 l 1.05059,-0.192752 -0.74518,-3.64939 -0.20464,0.03721 c -0.58344,0.107016 -0.99469,0.08385 -1.23455,-0.06976 -0.23462,-0.160943 -0.41153,-0.533021 -0.53071,-1.116727 z m -7.66981,1.564762 -3.87728,1.010274 2.29908,7.929232 c 0.40248,1.387933 1.11208,2.371384 2.12907,2.950207 1.01523,0.572789 2.22974,0.675156 3.64319,0.306959 l 1.03146,-0.268718 -1.03921,-3.584795 -0.20051,0.05219 c -0.57302,0.14927 -0.98551,0.156324 -1.23713,0.02066 -0.24701,-0.143346 -0.45388,-0.501591 -0.62012,-1.074869 z m -9.92498,2.923852 c -0.62175,0.0265 -1.29912,0.182169 -2.03243,0.466638 -1.52163,0.590277 -2.52941,1.454084 -3.02256,2.592091 -0.48953,1.129845 -0.41893,2.424957 0.21136,3.884517 l 3.25665,7.541141 3.72122,-1.443839 -1.21905,-2.823599 1.07229,-0.415996 -1.35082,-3.127976 -1.07229,0.416512 -0.63769,-1.476912 c -0.35516,-0.822449 -0.24257,-1.346274 0.33797,-1.571479 0.29943,-0.11616 0.54584,-0.107119 0.73949,0.02739 0.19364,0.134509 0.39057,0.433234 0.59066,0.896588 l 3.20807,7.427968 3.72122,-1.443321 -3.30884,-7.662581 c -0.66031,-1.529065 -1.49925,-2.522501 -2.51716,-2.979664 -0.5102,-0.231476 -1.07633,-0.33397 -1.69809,-0.307475 z m -11.67835,5.85029 c -0.89488,0.03773 -1.84248,0.351184 -2.84376,0.940511 l -4.38423,2.580204 7.13238,10.88564 3.41633,-2.01073 -5.21466,-7.958687 0.60564,-0.356569 c 0.83019,-0.48863 1.41446,-0.474879 1.75235,0.04082 0.38318,0.58482 0.21571,1.08842 -0.50229,1.51102 l -0.26924,0.158647 1.834,2.798794 3.95635,2.533695 3.58479,-2.109946 -4.91081,-3.331065 c 0.52065,-1.352528 0.42031,-2.578838 -0.30076,-3.679362 -0.70713,-1.079256 -1.69985,-1.728962 -2.97863,-1.948717 -0.28647,-0.04871 -0.57917,-0.06684 -0.87746,-0.05426 z m -10.70736,6.014103 -2.65927,2.151806 c -1.02438,0.829027 -1.58857,1.729975 -1.69292,2.703195 -0.0993,0.969155 0.27117,1.920232 1.11156,2.853055 l 3.44113,3.819406 c 0.87041,0.966136 1.83584,1.464074 2.89647,1.494483 1.05634,0.02564 2.14904,-0.41837 3.27887,-1.332736 l 2.40295,-1.944584 -2.50837,-2.784327 -2.05621,1.663981 c -0.35652,0.288533 -0.62045,0.448992 -0.79168,0.480592 -0.17552,0.02684 -0.35565,-0.062 -0.54002,-0.26665 -0.16293,-0.180856 -0.22325,-0.354312 -0.18138,-0.519867 0.0469,-0.169616 0.20581,-0.363979 0.47697,-0.583427 l 1.99626,-1.615406 -1.95543,-2.170408 -1.68724,1.365292 c -0.32137,0.260085 -0.57703,0.405424 -0.76688,0.435631 -0.19414,0.02545 -0.37678,-0.05716 -0.54829,-0.247531 -0.29156,-0.323633 -0.17378,-0.698807 0.35347,-1.125511 l 1.95079,-1.578716 z m -8.032605,6.655924 -6.84195,7.133419 2.87269,2.475288 2.07222,-2.16007 7.130855,6.14381 2.70474,-2.81998 -7.130845,-6.144325 2.065525,-2.15284 z m -8.2088,8.772587 c -0.466499,0.3036 -0.864669,0.66703 -1.194239,1.08986 -0.74938,0.96142 -1.02271,2.04966 -0.82062,3.26491 0.2007,1.2065 0.81313,2.16843 1.83813,2.88613 0.849749,0.59499 1.878299,0.96121 3.085079,1.09813 0.76005,0.0887 1.21992,0.18868 1.37925,0.30024 0.2443,0.17105 0.37813,0.40476 0.40152,0.70125 0.022,0.28773 -0.0711,0.5652 -0.27905,0.83199 -0.17656,0.22651 -0.47717,0.41666 -0.90124,0.57102 l 3.1471,2.20348 c 0.61564,-0.31589 1.11566,-0.72058 1.50017,-1.21388 0.80039,-1.02686 1.1109,-2.15155 0.93121,-3.37446 -0.17578,-1.22796 -0.79212,-2.21227 -1.84899,-2.95228 -0.72228,-0.50574 -1.63595,-0.81835 -2.74092,-0.93844 l -0.61288,-0.0672 c -0.47583,-0.0531 -0.8225,-0.15605 -1.04025,-0.30851 -0.25492,-0.1785 -0.40778,-0.41388 -0.45888,-0.70642 -0.0511,-0.29254 0.0133,-0.55445 0.19379,-0.786 0.0942,-0.1208 0.26757,-0.26425 0.51986,-0.42995 z m -4.680329,9.14466 c -0.3129,-0.0114 -0.61789,0.0101 -0.91519,0.0641 -1.18578,0.21039 -2.17505,0.93297 -2.96726,2.16834 -0.79564,1.24073 -1.03846,2.46319 -0.72864,3.66696 0.31326,1.19843 1.12752,2.17632 2.44223,2.93367 l 7.498769,4.31964 2.08824,-3.25665 -7.380429,-4.25194 c -0.70531,-0.4063 -0.9104,-0.83922 -0.61546,-1.29914 0.30522,-0.47597 0.81035,-0.51069 1.51567,-0.10439 l 7.380419,4.25142 2.08877,-3.25665 -7.380429,-4.25193 c -1.07913,-0.62165 -2.08797,-0.94935 -3.02669,-0.98341 z m 91.111244,3.79615 c -0.23012,-0.001 -0.47139,0.0114 -0.72347,0.0388 -1.00455,0.10271 -1.63305,0.37451 -1.88567,0.81545 -0.0679,0.11847 -0.11148,0.2414 -0.13074,0.36846 -0.0653,0.39432 -0.11681,0.62458 -0.15451,0.69039 -0.0453,0.079 -0.12589,0.17332 -0.24237,0.28319 -0.97875,0.91417 -1.66215,1.7101 -2.05052,2.38797 -0.91247,1.59266 -1.2029,3.19734 -0.87126,4.81418 0.0691,0.36649 0.17621,0.71427 0.32039,1.04386 -0.58611,-0.38144 -1.2071,-0.60523 -1.86293,-0.67128 -0.53444,-0.0576 -0.93717,0.0592 -1.20871,0.34985 -0.0627,0.0671 -0.13141,0.17443 -0.20619,0.32195 -0.23882,0.48052 -0.52617,0.93956 -0.86145,1.37717 -0.33588,0.42701 -0.91085,1.0762 -1.72548,1.9482 l -4.02611,4.30982 c -0.37457,0.40096 -0.65022,0.7194 -0.84697,0.97152 -0.42364,0.18326 -0.89796,0.44914 -1.42679,0.80305 -1.03263,0.69106 -1.64866,1.30026 -1.84795,1.82728 -0.16055,0.40954 -0.17502,1.02764 -0.0429,1.85466 0.0201,0.13301 0.065,0.41886 0.13487,0.85732 l 0.48525,3.45198 c 0.0483,0.34299 0.0543,0.59484 0.0186,0.75603 -0.0292,0.15689 -0.10789,0.27847 -0.23616,0.36432 -0.14752,0.0987 -0.29441,0.13285 -0.44029,0.10232 -0.14587,-0.0305 -0.46807,-0.16721 -0.96738,-0.4098 l -4.56613,-2.204 c -0.41618,-0.20667 -0.71002,-0.33006 -0.88212,-0.37052 -0.17209,-0.0404 -0.36375,-0.036 -0.57516,0.0139 -0.43368,0.098 -1.06107,0.4221 -1.88205,0.97151 -0.32711,0.21891 -0.70586,0.51781 -1.13585,0.8971 -0.42803,0.36885 -0.75406,0.68802 -0.97823,0.95705 -0.22864,0.26287 -0.36505,0.54139 -0.40876,0.83613 -0.0373,0.29044 0.0225,0.54379 0.1788,0.75964 0.24106,0.33302 0.66511,0.45164 1.27227,0.35657 0.27667,-0.0387 0.47237,-0.0506 0.58756,-0.0362 0.12161,0.0102 0.25607,0.0574 0.40308,0.14211 0.41926,0.25038 0.99266,0.87837 1.72031,1.8836 0.58033,0.80172 1.25338,1.7842 2.01899,2.94711 0.76116,1.15674 1.2912,2.00118 1.5906,2.53318 0.2835,0.49686 0.44511,0.85113 0.48421,1.06298 0.0455,0.20756 -0.004,0.42834 -0.14883,0.66249 -0.22191,0.37738 -0.34568,0.63401 -0.37103,0.76998 -0.0234,0.12552 0.0275,0.27484 0.15244,0.44752 0.48659,0.67221 1.50606,0.4889 3.05821,-0.54984 1.84079,-1.23189 2.51123,-2.19335 2.01125,-2.88406 -0.18749,-0.25902 -0.42507,-0.37012 -0.71262,-0.33331 -0.44317,0.0586 -0.72537,0.0825 -0.84697,0.0723 -0.1152,-0.0144 -0.24447,-0.0742 -0.38758,-0.17983 -0.22931,-0.18525 -0.57598,-0.59886 -1.04024,-1.24023 -0.44641,-0.61671 -0.91082,-1.30362 -1.39268,-2.06138 -0.21736,-0.33973 -0.22333,-0.57836 -0.0181,-0.71571 0.19242,-0.12877 0.51382,-0.0598 0.96377,0.2067 l 3.25819,1.89756 c 0.43015,0.25226 0.94021,0.52863 1.52963,0.82992 0.59582,0.297 0.95591,0.45897 1.08003,0.48576 0.19386,0.0442 0.36119,0.0195 0.5023,-0.0749 0.14752,-0.0987 0.23092,-0.25978 0.25011,-0.48317 0.0147,-0.22957 -0.0301,-0.62064 -0.13487,-1.17306 l -0.64699,-3.2613 c -0.17985,-0.93241 -0.27101,-1.57125 -0.27389,-1.91719 -0.007,-0.35212 0.0788,-0.5883 0.25839,-0.70849 0.15393,-0.10301 0.3091,-0.0926 0.4656,0.0315 0.16291,0.11984 0.42267,0.42648 0.7798,0.91985 0.64283,0.88805 1.06598,1.53835 1.26969,1.9513 0.21012,0.40865 0.27868,0.73351 0.20567,0.97461 -0.13767,0.46747 -0.20892,0.77638 -0.21446,0.92656 -0.01,0.14402 0.0386,0.29021 0.14573,0.43822 0.29017,0.40086 0.79059,0.48676 1.5012,0.25838 0.63949,-0.20825 1.50091,-0.67503 2.58486,-1.40043 0.70552,-0.47215 1.21717,-0.83721 1.53479,-1.09554 0.31761,-0.25833 0.59451,-0.53969 0.83095,-0.84439 0.46703,-0.57803 0.54451,-1.08294 0.23203,-1.51464 -0.17856,-0.24668 -0.43711,-0.3667 -0.77515,-0.36018 -0.4853,0.0135 -0.80759,-0.004 -0.96686,-0.0532 -0.15286,-0.0533 -0.35322,-0.21236 -0.60152,-0.47646 -1.01103,-1.08106 -2.08575,-2.40804 -3.22409,-3.98063 -0.88389,-1.22108 -1.56029,-2.30636 -2.02881,-3.25614 -0.19245,-0.40539 -0.24484,-0.7932 -0.15865,-1.16323 0.85746,0.29208 2.35814,1.36202 4.51652,3.22616 1.48826,1.28537 2.58523,2.39928 3.29075,3.34191 0.17333,0.2305 0.27587,0.43571 0.30799,0.61495 0.0374,0.17366 0.0155,0.37682 -0.0656,0.60978 -0.10828,0.34079 -0.15554,0.57717 -0.14263,0.70952 0.0129,0.13235 0.10322,0.27142 0.27182,0.41703 0.23835,0.20586 0.4978,0.28805 0.77773,0.24701 0.27411,-0.046 0.54448,-0.21152 0.8108,-0.49661 l 6.64197,-7.11016 c 0.57619,-0.58304 1.06623,-1.02335 1.4702,-1.32085 0.22287,-0.1711 0.38395,-0.30978 0.48317,-0.41599 0.12011,-0.12857 0.1847,-0.26466 0.19327,-0.40876 0.0144,-0.13908 -0.0175,-0.35856 -0.0951,-0.65784 -0.17196,-0.60301 -0.43862,-1.21709 -0.79995,-1.84227 -0.28666,-0.49596 -0.56924,-0.8856 -0.84802,-1.1777 0.38194,0.12092 0.7841,0.21667 1.20872,0.28473 0.87942,0.13126 1.51924,0.097 1.91926,-0.10283 0.51817,-0.26598 1.15099,-0.8098 1.89859,-1.63194 0.74076,-0.82578 1.3524,-1.65978 1.83503,-2.50218 1.08215,-1.88881 1.48625,-3.6695 1.21285,-5.34127 -0.26795,-1.63457 -1.13057,-2.8379 -2.58848,-3.61012 -1.64955,-0.87373 -3.37964,-0.69639 -5.18986,0.53227 -0.41034,0.2802 -1.21423,0.99101 -2.41226,2.13217 -0.87805,0.84741 -1.61523,1.1133 -2.21071,0.79788 -0.30117,-0.15952 -0.48171,-0.39652 -0.54209,-0.71158 -0.0566,-0.32165 0.0209,-0.66705 0.23203,-1.0356 0.43738,-0.76342 1.26554,-1.33661 2.4846,-1.72031 0.86122,-0.27299 1.39354,-0.46295 1.59732,-0.56947 0.20378,-0.10652 0.38093,-0.29124 0.53175,-0.55449 0.18099,-0.31589 0.20388,-0.65171 0.0682,-1.00665 -0.13874,-0.36516 -0.39959,-0.64913 -0.78289,-0.85215 -0.49282,-0.26103 -1.08471,-0.3931 -1.77509,-0.39688 z m -95.692354,7.18974 c -0.79032,-0.007 -1.59069,0.11867 -2.40141,0.37879 -1.85018,0.58894 -3.19318,1.69984 -4.02921,3.33262 -0.88216,1.72286 -1.01149,3.46512 -0.38706,5.22707 0.62732,1.75632 1.83213,3.04465 3.61425,3.86436 1.76431,0.81151 3.57314,0.91294 5.42603,0.30437 1.85289,-0.60855 3.2071,-1.7493 4.06332,-3.42149 0.86197,-1.68345 0.97389,-3.39867 0.33486,-5.14646 -0.63903,-1.74779 -1.84685,-3.03033 -3.62303,-3.84731 -0.9824,-0.45186 -1.98164,-0.68238 -2.99775,-0.69195 z m 101.685274,2.11977 c 0.15202,0.003 0.29667,0.0412 0.43357,0.11369 0.29431,0.15589 0.4505,0.43601 0.4687,0.84026 0.0113,0.40062 -0.12251,0.84469 -0.40153,1.3317 -0.32426,0.56599 -0.7658,1.048 -1.32446,1.44694 -0.5549,0.39236 -1.09363,0.60909 -1.61644,0.64957 -1.10861,0.0819 -1.77787,0.15188 -2.00763,0.21033 -0.39891,0.0889 -0.67011,0.25841 -0.81339,0.50849 -0.14328,0.25009 -0.15267,0.51579 -0.0279,0.79634 0.0647,0.15014 0.18873,0.28879 0.36276,0.41858 -0.25735,0.0177 -0.47384,0.11596 -0.64647,0.30075 -0.18799,0.20124 -0.284,0.41594 -0.28784,0.64492 10e-4,0.2234 0.0974,0.55893 0.28836,1.00666 0.33651,0.77543 0.41974,1.4738 0.2496,2.09445 -0.17596,0.61562 -0.65538,1.34279 -1.43867,2.18126 -0.50653,0.54221 -0.90168,0.90308 -1.18495,1.08262 -0.28386,0.16893 -0.53364,0.19996 -0.74982,0.0941 -0.17608,-0.0814 -0.49753,-0.28821 -0.96428,-0.62063 -0.46735,-0.34304 -0.83781,-0.63218 -1.11105,-0.86817 -0.44764,-0.38661 -0.7109,-0.69498 -0.79013,-0.925 -0.0798,-0.24064 -0.002,-0.48692 0.23254,-0.73846 0.61097,-0.65401 1.28426,-0.73932 2.01952,-0.2558 0.3563,0.23703 0.62071,0.3647 0.79323,0.38241 0.16672,0.0127 0.3387,-0.0761 0.51625,-0.26614 0.28721,-0.30744 0.34153,-0.67466 0.16278,-1.10174 -0.33129,-0.78102 -0.95628,-1.56829 -1.87482,-2.36161 -0.46508,-0.40168 -0.94887,-0.74413 -1.45159,-1.02681 -0.50331,-0.2933 -0.89429,-0.45392 -1.17254,-0.48214 -0.37816,-0.0337 -0.67422,0.0643 -0.88832,0.29352 -0.14621,0.15651 -0.22184,0.33846 -0.22686,0.54622 -0.0114,0.19213 0.026,0.36572 0.11214,0.5209 0.0855,0.14457 0.27866,0.38227 0.57929,0.71262 0.2355,0.25389 0.3558,0.47882 0.36122,0.67541 -2.6e-4,0.19156 -0.10985,0.40498 -0.32918,0.63975 -0.44386,0.47513 -0.75881,0.73313 -0.94464,0.77463 -0.19164,0.0365 -0.46199,-0.0956 -0.8108,-0.39688 -0.88366,-0.76319 -1.42781,-1.24326 -1.63246,-1.44022 -0.19944,-0.20254 -0.32911,-0.39564 -0.38913,-0.57877 -0.1078,-0.34561 0.13845,-0.83977 0.73898,-1.4826 0.80418,-0.86083 1.44808,-1.42045 1.93166,-1.67948 0.48299,-0.26965 1.03438,-0.35969 1.65365,-0.26924 0.43511,0.0627 0.74032,0.0789 0.9157,0.0486 0.1748,-0.0409 0.34806,-0.1535 0.52039,-0.33797 0.18224,-0.19507 0.27727,-0.40852 0.28783,-0.63975 0.23464,0.19684 0.48813,0.36927 0.76171,0.51418 1.21835,0.64533 2.60441,0.70177 4.15841,0.1695 0.63523,-0.22113 1.22393,-0.50976 1.76681,-0.86558 0.53604,-0.35945 1.22762,-0.92839 2.07481,-1.70636 0.47653,-0.44244 0.88223,-0.72914 1.21647,-0.86093 0.16711,-0.0659 0.3265,-0.0973 0.47852,-0.094 z m -101.955034,1.76889 c 0.49266,-0.0125 0.98228,0.0931 1.46865,0.31677 0.77819,0.35794 1.31379,0.90991 1.60662,1.65675 0.28977,0.73848 0.25317,1.46254 -0.11007,2.17196 -0.35748,0.69815 -0.93789,1.17242 -1.74098,1.42214 -0.80021,0.24408 -1.58678,0.18829 -2.35903,-0.16692 -0.77225,-0.35521 -1.30449,-0.90629 -1.59732,-1.65313 -0.29282,-0.74684 -0.25907,-1.47231 0.10129,-2.17609 0.36324,-0.70942 0.94365,-1.18316 1.74098,-1.42162 0.29785,-0.0926 0.59427,-0.14235 0.88986,-0.14986 z m -8.49715,9.4604 c -0.41094,0.003 -0.79414,0.0621 -1.1498,0.17777 -0.94845,0.30837 -1.64259,0.99905 -2.08308,2.07222 -0.2777,0.67657 -0.37305,1.29645 -0.28525,1.85932 0.0816,0.5606 0.36028,1.15993 0.83509,1.79834 -1.45819,0.22115 -2.43869,0.94404 -2.94142,2.16886 -0.42374,1.03234 -0.41193,2.00394 0.0362,2.91455 0.4481,0.91061 1.23547,1.57328 2.36161,1.98851 l 9.08265,3.34915 1.45831,-3.55172 -8.19692,-3.02255 c -0.67075,-0.24733 -0.93429,-0.54561 -0.79065,-0.89556 0.0766,-0.18664 0.19589,-0.28703 0.3576,-0.30127 0.16172,-0.0142 0.44234,0.052 0.84233,0.19947 l 8.19691,3.02255 1.45779,-3.55223 -8.26151,-3.04581 c -0.62767,-0.23144 -0.86969,-0.52235 -0.72605,-0.8723 0.0766,-0.18664 0.19466,-0.28408 0.35399,-0.29249 0.15555,-0.0165 0.43669,0.0502 0.84284,0.19999 l 8.1964,3.02203 1.45831,-3.55172 -8.76019,-3.22977 c -0.83845,-0.30915 -1.60023,-0.46187 -2.28514,-0.45734 z m 66.343254,10.65775 c -0.40739,-0.004 -0.79431,0.0633 -1.16118,0.20309 -0.77732,0.29622 -1.31568,0.78401 -1.6154,1.46399 -0.1476,0.31488 -0.20922,0.60505 -0.18397,0.87023 0.0296,0.25543 0.16479,0.68481 0.40514,1.28829 0.22596,0.56857 0.36327,1.18722 0.41186,1.8557 0.053,0.65873 0.041,1.68995 -0.0362,3.09336 l -0.20205,3.82302 c -0.0588,1.12162 -0.15144,1.87592 -0.2775,2.26343 -0.12169,0.37775 -0.38519,0.73684 -0.79117,1.07745 -0.25028,0.20853 -0.40917,0.39455 -0.47646,0.55759 -0.06,0.16027 -0.0453,0.3488 0.0439,0.56534 0.20442,0.49594 0.59114,0.72045 1.16013,0.67334 0.61546,-0.0567 1.51133,-0.3096 2.68821,-0.75809 2.07044,-0.78901 2.93472,-1.59911 2.59209,-2.43034 -0.15548,-0.3772 -0.48068,-0.54441 -0.97565,-0.50127 -0.38463,0.0254 -0.61859,0.0299 -0.70125,0.0129 -0.0783,-0.0267 -0.14904,-0.11712 -0.21239,-0.27079 -0.0691,-0.16764 -0.0976,-0.35877 -0.0853,-0.57361 0.0123,-0.21483 0.0624,-0.37936 0.14987,-0.49351 0.14281,-0.18374 0.69726,-0.45965 1.66346,-0.82785 1.14782,-0.43742 2.05522,-0.7349 2.7218,-0.89194 0.62299,-0.14042 1.03078,0.0234 1.2237,0.49144 0.10941,0.26544 0.0163,0.51932 -0.27906,0.7612 -0.2648,0.21407 -0.43087,0.4023 -0.49816,0.56534 -0.0629,0.15329 -0.0512,0.3346 0.0351,0.54415 0.11229,0.27242 0.31435,0.46658 0.60565,0.58188 0.29568,0.10554 0.63818,0.12051 1.02733,0.045 0.84655,-0.16905 2.09077,-0.5665 3.73259,-1.19218 1.45293,-0.55369 2.45266,-1.06402 2.99981,-1.53117 0.54716,-0.46715 0.71559,-0.95563 0.5054,-1.46555 -0.17852,-0.43307 -0.54495,-0.58861 -1.09968,-0.46612 -0.28606,0.0605 -0.51895,0.0565 -0.69866,-0.0124 -0.18259,-0.0759 -0.45239,-0.27217 -0.80977,-0.58859 l -3.80907,-3.45871 c -3.27268,-2.96374 -5.52929,-4.64565 -6.77013,-5.04568 -0.44791,-0.14857 -0.87574,-0.22455 -1.28312,-0.22893 z m -9.07645,3.14709 c -0.0547,8e-4 -0.10933,0.006 -0.1633,0.0145 -0.16962,0.0269 -0.33071,0.0789 -0.48369,0.15657 -0.46412,0.24893 -0.7734,0.38581 -0.92759,0.41031 -0.14649,0.0233 -0.43112,0.004 -0.8537,-0.0584 -0.94149,-0.13214 -1.91696,-0.11815 -2.92695,0.0424 -1.61136,0.2561 -2.99221,0.79555 -4.14187,1.61798 -1.32067,0.9334 -2.27012,2.11252 -2.84892,3.53726 -0.54784,1.32843 -0.70661,2.66314 -0.47594,4.00492 0.22812,1.32695 0.75645,2.51109 1.58492,3.55224 0.99132,1.25135 2.27744,2.14365 3.85816,2.67684 1.53961,0.52449 3.15362,0.65282 4.84208,0.38447 1.03312,-0.1642 1.98998,-0.4728 2.87063,-0.92501 0.88835,-0.45343 1.61744,-1.00349 2.18746,-1.65003 0.82737,-0.94638 1.30564,-2.03508 1.43454,-3.26646 0.0325,-0.31742 0.0808,-0.51927 0.14521,-0.60565 0.0708,-0.095 0.2383,-0.18256 0.50177,-0.26252 0.30203,-0.0861 0.53286,-0.24068 0.69247,-0.46405 0.15834,-0.23079 0.21434,-0.47985 0.16846,-0.74673 -0.11342,-0.65977 -0.61181,-1.04888 -1.49551,-1.16737 -0.93124,-0.11854 -2.04877,-0.0743 -3.35173,0.13281 -1.21816,0.19361 -2.26935,0.50538 -3.15382,0.93534 -0.80347,0.39425 -1.15222,0.89935 -1.04644,1.51464 0.0535,0.31135 0.20629,0.55331 0.45785,0.72657 0.25799,0.16462 0.55266,0.22064 0.88418,0.16795 0.37007,-0.0588 0.59107,-0.086 0.66301,-0.0822 0.0784,-0.005 0.16493,0.0157 0.25993,0.0615 0.24137,0.11395 0.39255,0.34852 0.45372,0.70435 0.0688,0.40031 -0.005,0.75101 -0.22272,1.05213 -0.2111,0.29249 -0.51738,0.47062 -0.91829,0.53434 -0.48572,0.0772 -0.99807,0.0215 -1.53738,-0.16692 -0.54058,-0.19586 -1.02695,-0.49145 -1.45934,-0.88728 -1.1547,-1.09592 -1.88443,-2.52981 -2.18901,-4.30155 -0.20518,-1.19352 -0.0752,-2.189 0.38964,-2.98638 0.47259,-0.7986 1.20999,-1.27783 2.21226,-1.43712 1.10251,-0.17523 2.16366,0.17012 3.18379,1.03611 0.61208,0.51959 0.99183,0.81743 1.13947,0.89297 0.48527,0.24273 0.95171,0.32842 1.39888,0.25735 0.5474,-0.087 0.95299,-0.35333 1.21698,-0.79892 0.27168,-0.44681 0.35247,-0.98873 0.24287,-1.62626 -0.16057,-0.93406 -0.62435,-1.74399 -1.39164,-2.42931 -0.41765,-0.37343 -0.81768,-0.55724 -1.20044,-0.55138 z m 10.01902,2.97036 c 0.0834,0.009 0.17248,0.0357 0.26665,0.0806 0.18835,0.0899 0.49056,0.29385 0.90744,0.61185 0.91628,0.69344 1.42221,1.15545 1.51722,1.38596 0.0691,0.16764 -0.0924,0.32593 -0.48472,0.47542 l -2.13579,0.81391 c -0.33418,0.12735 -0.53728,0.10383 -0.60927,-0.0708 -0.0576,-0.1397 -0.0807,-0.62387 -0.0692,-1.45263 0.003,-0.50228 0.006,-0.7906 0.009,-0.86454 -0.0186,-0.53445 0.10279,-0.85118 0.36432,-0.95085 0.0727,-0.0277 0.15068,-0.0376 0.23409,-0.0289 z" />
  </g>
</svg>
